<svg xmlns="http://www.w3.org/2000/svg" width="19" height="11" viewBox="0 0 19 11">
    <path fill="#333" fill-rule="nonzero" d="M9.5 0C3.267 0 0 4.746 0 5.5 0 6.252 3.267 11 9.5 11c6.232 0 9.5-4.748 9.5-5.5C19 4.746 15.732 0 9.5 0zm0 9.73A4.226 4.226 0 0 1 5.277 5.5 4.228 4.228 0 0 1 9.5 1.268 4.227 4.227 0 0 1 13.722 5.5c0 2.337-1.89 4.23-4.222 4.23zm0-4.23c-.387-.439.63-2.116 0-2.116A2.114 2.114 0 0 0 7.388 5.5c0 1.168.945 2.116 2.112 2.116A2.115 2.115 0 0 0 11.612 5.5c0-.537-1.783.372-2.112 0z"/>
</svg>
