<svg xmlns="http://www.w3.org/2000/svg" width="16" height="13" viewBox="0 0 16 13">
    <path fill="#F94E4E" fill-rule="nonzero" d="M11.25 0h-6.5s-.814 0-.814.812h8.126C12.062 0 11.25 0 11.25 0zm2.437 2.437c0-.812-.812-.812-.812-.812H3.124s-.812 0-.812.812v.813h11.375v-.813zm1.625.813l-.48-.481v1.293H1.167V2.77l-.48.481c-.481.481-.826.61-.632 1.625.192 1.012 1.125 6.562 1.264 7.312.152.824.994.813.994.813h11.375s.84.011.994-.813c.138-.75 1.07-6.3 1.264-7.312.192-1.016-.153-1.144-.634-1.625zm-4.047 4.873c0 .45-.367.814-.82.814H5.554a.817.817 0 0 1-.819-.814V6.5h.817v1.625h4.897V6.5h.817v1.623z"/>
</svg>
