<svg xmlns="http://www.w3.org/2000/svg" width="26" height="22" viewBox="0 0 26 22">
    <path fill="#0BC185" fill-rule="nonzero" d="M18.28 0H7.717s-1.32 0-1.32 1.375H19.6C19.601 0 18.28 0 18.28 0zm3.962 4.125c0-1.375-1.32-1.375-1.32-1.375H5.076s-1.32 0-1.32 1.375V5.5h18.486V4.125zm2.64 1.375l-.78-.814v2.189H1.897V4.686l-.781.814C.334 6.314-.225 6.531.089 8.25c.313 1.713 1.83 11.104 2.055 12.375C2.39 22.019 3.758 22 3.758 22h18.485s1.367.02 1.615-1.375c.225-1.27 1.74-10.662 2.054-12.375.312-1.719-.248-1.936-1.03-2.75zm-6.577 8.246c0 .762-.595 1.379-1.33 1.379H9.024c-.735 0-1.33-.617-1.33-1.38V11H9.02v2.75h7.959V11h1.326v2.746z"/>
</svg>
