<svg xmlns="http://www.w3.org/2000/svg" width="16" height="16" viewBox="0 0 16 16">
    <path fill="#BBB" fill-rule="nonzero" d="M8 0a8 8 0 1 0 0 16A8 8 0 0 0 8 0zm-.126 12.666h-.042c-.652-.02-1.112-.5-1.093-1.143.018-.631.49-1.09 1.12-1.09l.038.001c.67.02 1.125.495 1.105 1.156-.019.633-.481 1.076-1.128 1.076zm2.743-5.443c-.154.217-.49.489-.915.82l-.469.322c-.256.2-.411.39-.469.573-.047.145-.068.185-.072.48v.075H6.904l.005-.151c.023-.62.038-.987.295-1.29C7.608 7.58 8.5 7.005 8.538 6.98c.128-.096.235-.205.315-.322.188-.26.27-.463.27-.661a1.29 1.29 0 0 0-.244-.764c-.156-.221-.454-.331-.884-.331-.427 0-.72.135-.893.413-.18.284-.271.583-.271.89v.076H4.988l.004-.08c.047-1.128.45-1.94 1.196-2.414.469-.301 1.053-.454 1.734-.454.89 0 1.643.217 2.235.644.6.432.905 1.08.905 1.925-.001.473-.15.917-.445 1.321z"/>
</svg>
