<svg xmlns="http://www.w3.org/2000/svg" width="119" height="22" viewBox="0 0 119 22">
    <g fill="none" fill-rule="evenodd">
        <path fill="#2DCDB6" d="M.844 11.688c1.421 1.763 3.58 2.888 5.995 2.888 2.416 0 4.574-1.125 5.995-2.889.538.995.844 2.137.844 3.353 0 3.844-3.062 6.96-6.839 6.96C3.062 22 0 18.884 0 15.04c0-1.216.306-2.358.844-3.352z"/>
        <path fill="#F44E4E" d="M1.367 11A6.868 6.868 0 0 1 0 6.875C0 3.078 3.062 0 6.84 0c3.776 0 6.838 3.078 6.838 6.875A6.868 6.868 0 0 1 12.311 11a6.817 6.817 0 0 0-10.944 0z"/>
        <path fill="#333" fill-rule="nonzero" d="M26.358 5.785h3.42c2.96 0 4.439 2.524 4.439 5.559 0 3.01-1.48 5.486-4.439 5.486h-3.42V5.785zm3.42 13.885c4.779 0 7.544-3.592 7.544-8.326 0-4.758-2.765-8.4-7.544-8.4h-6.525V19.67h6.525zm12.341-4.005c0-3.01.825-4.807 2.838-4.807.291 0 1.019 0 1.722.316l.51-2.67c-.461-.243-1.068-.413-1.868-.413-1.286 0-2.62.85-3.202 2.913v-2.67h-2.96V19.67h2.96v-4.005zm4.517 2.403c0 1.068.873 1.845 1.892 1.845 1.068 0 1.94-.777 1.94-1.845s-.872-1.845-1.94-1.845c-1.019 0-1.892.777-1.892 1.845zm8.37-3.277c0 2.865 2.426 5.146 5.991 5.146 3.057 0 5.725-1.723 5.87-4.733.146-1.967-.824-4.079-4.56-5.098l-2.062-.607c-1.795-.486-1.989-1.384-1.989-1.918 0-1.19 1.116-1.966 2.499-1.966 1.552 0 2.498.874 2.498 2.184h3.105c0-3.131-2.401-5.049-5.555-5.049-3.08 0-5.627 1.966-5.627 4.904 0 1.48.582 3.593 4.22 4.66l2.062.535c1.625.437 2.377 1.165 2.305 2.282-.073 1.14-1.092 2.015-2.766 2.015-1.795 0-2.838-1.141-2.886-2.355h-3.105zm26.27-3.811c1.213 0 2.135.898 2.135 2.524v6.166h2.935V13.19c0-3.326-1.625-5.098-4.366-5.098-.897 0-2.498.267-3.566 2.136-.63-1.384-1.819-2.015-3.614-2.112-1.067 0-2.62.51-3.25 1.894V8.334h-2.96V19.67h2.96v-6.044c0-1.942 1.164-2.646 2.377-2.646 1.164 0 2.062.874 2.086 2.451v6.24h2.96v-6.045c0-1.724.97-2.646 2.304-2.646zm16.01 8.69h2.96V8.334h-2.96v1.408c-.824-1.263-2.498-1.651-3.517-1.651-2.983 0-5.773 2.257-5.773 5.899 0 3.617 2.79 5.899 5.773 5.899 1.116 0 2.79-.51 3.517-1.675v1.456zm-6.234-5.68c0-1.845 1.504-3.059 3.13-3.059 1.552 0 3.104 1.092 3.104 3.059 0 1.942-1.503 3.059-3.104 3.059-1.626 0-3.13-1.238-3.13-3.06zm14.367 1.675c0-3.01.825-4.807 2.838-4.807.291 0 1.019 0 1.722.316l.51-2.67c-.461-.243-1.068-.413-1.868-.413-1.286 0-2.62.85-3.202 2.913v-2.67h-2.96V19.67h2.96v-4.005zm11.18-11.653h-2.936v4.322h-2.357v2.379h2.357v8.957h2.936v-8.957H119v-2.38h-2.401v-4.32z"/>
    </g>
</svg>
