<svg xmlns="http://www.w3.org/2000/svg" width="135" height="18" viewBox="0 0 135 18">
    <g fill="#333" fill-rule="evenodd">
        <path d="M24.144 13.776c-.582.61-1.272.916-2.07.916-.797 0-1.487-.305-2.07-.916-.582-.61-.873-1.363-.873-2.26 0-.898.291-1.654.874-2.268.582-.614 1.272-.921 2.07-.921.797 0 1.487.307 2.07.92.582.615.873 1.37.873 2.268 0 .898-.291 1.651-.874 2.261m-2.07-8.512c-1.714 0-3.206.624-4.474 1.873-1.268 1.247-1.902 2.705-1.902 4.372 0 1.667.634 3.125 1.902 4.373 1.268 1.248 2.76 1.872 4.475 1.872 1.714 0 3.204-.624 4.468-1.872 1.264-1.248 1.896-2.706 1.896-4.373 0-1.667-.632-3.125-1.896-4.372-1.264-1.25-2.754-1.873-4.468-1.873M35.66 8.207c.543 0 1.06.145 1.55.437.49.29.81.528.957.712.148.183.254.33.317.442l2.082-2.082-.18-.25a4 4 0 0 0-.61-.623 9.329 9.329 0 0 0-.957-.711c-.359-.236-.82-.44-1.382-.61a6.055 6.055 0 0 0-1.776-.258c-1.763 0-3.286.624-4.57 1.872-1.285 1.248-1.927 2.706-1.927 4.373 0 1.667.642 3.125 1.926 4.373 1.285 1.248 2.808 1.872 4.57 1.872a5.81 5.81 0 0 0 1.777-.268c.563-.18 1.02-.375 1.37-.587.351-.212.678-.455.98-.73.304-.275.498-.47.582-.586.083-.116.149-.206.197-.27l-1.962-2.081-.323.407c-.224.263-.58.526-1.071.79a3.23 3.23 0 0 1-1.55.394c-.861 0-1.607-.323-2.237-.97-.63-.645-.945-1.425-.945-2.338s.313-1.693.94-2.339c.625-.646 1.373-.969 2.243-.969M55.756 13.776c-.582.61-1.272.916-2.07.916-.798 0-1.487-.305-2.07-.916-.582-.61-.873-1.363-.873-2.26 0-.898.291-1.654.874-2.268.582-.614 1.271-.921 2.07-.921.797 0 1.487.307 2.07.92.581.615.873 1.37.873 2.268 0 .898-.292 1.651-.874 2.261m-2.07-8.512c-1.715 0-3.206.624-4.474 1.873-1.268 1.247-1.903 2.705-1.903 4.372 0 1.667.635 3.125 1.903 4.373 1.268 1.248 2.76 1.872 4.475 1.872 1.714 0 3.204-.624 4.468-1.872 1.264-1.248 1.896-2.706 1.896-4.373 0-1.667-.632-3.125-1.896-4.372-1.264-1.25-2.754-1.873-4.468-1.873M82.821 8.124a31.343 31.343 0 0 0-2.489-.838c-.825-.24-1.527-.533-2.105-.88-.578-.346-.867-.807-.867-1.381 0-.51.213-.945.64-1.305.426-.359.99-.538 1.692-.538.583 0 1.149.136 1.7.407.55.271.91.488 1.082.652.172.163.305.302.4.413l2.202-2.333-.215-.24c-.135-.167-.361-.364-.676-.592a9.148 9.148 0 0 0-1.1-.67c-.42-.219-.956-.41-1.61-.574A8.336 8.336 0 0 0 79.441 0c-1.778 0-3.224.49-4.337 1.471-1.113.981-1.669 2.166-1.669 3.554 0 1.124.292 2.054.874 2.787.582.734 1.286 1.26 2.111 1.58.826.319 1.655.596 2.489.831.833.236 1.539.529 2.118.88.578.35.867.813.867 1.387 0 .638-.25 1.165-.748 1.58-.498.414-1.19.621-2.075.621-.766 0-1.5-.171-2.202-.514-.702-.343-1.154-.616-1.358-.82a10.713 10.713 0 0 1-.472-.496l-2.214 2.202.275.299c.16.192.423.427.79.705.367.28.792.555 1.274.826.483.272 1.097.505 1.843.7a9.113 9.113 0 0 0 2.314.293c2.026 0 3.616-.502 4.768-1.507 1.153-1.006 1.73-2.302 1.73-3.889 0-1.124-.292-2.054-.874-2.788a4.918 4.918 0 0 0-2.124-1.578M100.745 5.264c-.503 0-.988.074-1.453.221-.467.148-.845.316-1.131.503-.287.188-.557.399-.808.634a5.004 5.004 0 0 0-.49.502c-.077.1-.13.174-.162.222l-.095-.215a2.098 2.098 0 0 0-.365-.533A4.888 4.888 0 0 0 95.6 6c-.247-.196-.578-.367-.993-.515a3.933 3.933 0 0 0-1.328-.221c-.622 0-1.206.16-1.753.478-.546.32-.902.572-1.07.76a3.704 3.704 0 0 0-.371.473V5.503h-3.302v12.012h3.302V11.27c0-.885.21-1.578.628-2.076.419-.499.947-.748 1.585-.748.566 0 1.035.217 1.406.652.371.435.557 1.035.557 1.8v6.617h3.301V11.27c0-.885.208-1.578.622-2.076.415-.499.941-.748 1.58-.748.574 0 1.045.217 1.411.652.368.435.55 1.035.55 1.8v6.617h3.315v-6.987c0-1.73-.385-3.041-1.155-3.93-.77-.89-1.816-1.334-3.14-1.334M114.463 13.89c-.575.622-1.268.933-2.082.933-.814 0-1.507-.31-2.082-.932-.574-.623-.86-1.417-.86-2.382 0-.965.286-1.757.86-2.375.575-.618 1.268-.927 2.082-.927.814 0 1.507.31 2.082.927.574.618.861 1.41.861 2.375 0 .965-.287 1.759-.861 2.382zm.861-6.915l-.37-.443c-.248-.27-.669-.55-1.263-.838a4.363 4.363 0 0 0-1.92-.43c-1.556 0-2.905.604-4.05 1.813-1.144 1.208-1.717 2.686-1.717 4.432 0 1.747.573 3.225 1.717 4.433 1.145 1.208 2.494 1.812 4.05 1.812.438 0 .86-.06 1.268-.179.407-.12.737-.257.993-.412.255-.157.492-.332.712-.527.219-.196.363-.332.43-.407a1.81 1.81 0 0 0 .15-.185v1.471h3.303V5.503h-3.303v1.472zM124.762 5.946c-.595.295-.93.46-1.561 1.029V5.504h-3.303v12.011h3.303v-5.754c0-1.03.253-1.819.76-2.37.505-.55 1.193-.708 2.063-.708h1.101v-3.18h-.49c-.655 0-1.279.148-1.873.443M65.88 5.946c-.596.295-.931.46-1.562 1.029V5.504h-3.303v12.011h3.303v-5.754c0-1.03.253-1.819.76-2.37.505-.55 1.193-.708 2.063-.708h1.101v-3.18h-.49c-.654 0-1.279.148-1.873.443M133.899 14.577a2.308 2.308 0 0 1-.46.137 2.95 2.95 0 0 1-.629.066c-.423 0-.772-.13-1.047-.394a1.277 1.277 0 0 1-.413-.957v-4.79h2.441V5.462h-2.44V1.919h-3.315v11.629c0 2.776 1.264 4.164 3.793 4.164.821.008 1.559-.112 2.214-.359V14.53l-.144.047zM46.668 14.714a2.949 2.949 0 0 1-.628.067c-.423 0-.772-.132-1.047-.395a1.277 1.277 0 0 1-.413-.957v-4.79h2.441V5.462h-2.44V1.919h-3.315v11.629c0 2.776 1.265 4.164 3.793 4.164.821.007 1.56-.112 2.214-.359V14.53l-.144.047a2.304 2.304 0 0 1-.46.137M6.622 14.082v.003H3.45V3.791h3.173a5.152 5.152 0 0 1 5.146 5.145 5.15 5.15 0 0 1-5.146 5.146m0-13.726V.36H0v17.155h6.622c4.73 0 8.58-3.848 8.58-8.579 0-4.73-3.85-8.58-8.58-8.58"/>
    </g>
</svg>
